<?xml version="1.0" standalone="no"?>
<!DOCTYPE svg PUBLIC "-//W3C//DTD SVG 20010904//EN"
 "http://www.w3.org/TR/2001/REC-SVG-20010904/DTD/svg10.dtd">
<svg version="1.0" xmlns="http://www.w3.org/2000/svg"
 width="1280.000000pt" height="826.000000pt" viewBox="0 0 1280.000000 826.000000"
 preserveAspectRatio="xMidYMid meet">
<metadata>
Created by potrace 1.15, written by Peter Selinger 2001-2017
</metadata>
<g transform="translate(0.000000,826.000000) scale(0.100000,-0.100000)"
fill="#000000" stroke="none">
<path d="M10510 8245 c-89 -17 -90 -17 -307 -117 -95 -43 -175 -78 -178 -78
-21 0 -295 -200 -374 -273 -53 -49 -133 -121 -178 -160 -46 -39 -83 -76 -83
-83 0 -6 -7 -18 -16 -25 -9 -8 -44 -50 -77 -94 -33 -44 -74 -96 -91 -116 -17
-20 -46 -55 -64 -78 -56 -69 -146 -114 -337 -166 -201 -55 -273 -85 -507 -209
-197 -105 -356 -208 -440 -285 -30 -28 -90 -70 -133 -94 -88 -50 -188 -142
-590 -542 l-261 -260 -110 -49 c-212 -96 -254 -119 -317 -178 -92 -86 -155
-105 -441 -132 -103 -10 -158 -20 -192 -36 -27 -12 -80 -33 -119 -47 -140 -50
-302 -153 -429 -272 -78 -74 -89 -81 -170 -106 -103 -31 -132 -55 -246 -199
-56 -71 -87 -101 -120 -117 -25 -11 -67 -32 -95 -45 -55 -26 -298 -254 -309
-290 -4 -15 -25 -28 -65 -43 -32 -12 -64 -28 -71 -36 -16 -19 -15 -19 48 5 58
22 72 24 72 11 0 -5 -24 -17 -53 -25 -34 -10 -69 -30 -98 -57 -27 -25 -73 -52
-119 -71 -69 -27 -147 -75 -138 -84 2 -2 35 8 74 21 74 26 104 31 104 16 0 -8
-98 -51 -114 -51 -2 0 -28 -15 -57 -34 -53 -34 -98 -69 -207 -161 -62 -53 -90
-69 -202 -111 -46 -17 -86 -36 -88 -42 -3 -11 11 -8 125 25 47 13 121 15 83 1
-8 -3 -53 -18 -100 -33 -109 -36 -271 -139 -290 -184 -9 -24 -29 -39 -84 -65
-39 -19 -109 -66 -156 -104 -76 -63 -87 -76 -105 -128 -16 -47 -25 -59 -50
-68 -16 -6 -75 -34 -130 -62 -55 -28 -118 -57 -140 -64 -22 -7 -65 -25 -95
-40 -220 -113 -263 -131 -406 -175 -28 -9 -67 -28 -86 -43 -34 -26 -147 -118
-178 -145 -9 -7 -30 -19 -47 -26 -47 -19 -67 -45 -54 -70 15 -27 14 -28 -13
-35 -37 -9 -116 -117 -116 -157 l0 -32 62 6 c35 3 106 19 158 36 141 45 529
165 655 201 61 18 171 52 245 76 74 24 164 50 200 59 36 9 148 41 248 72 101
30 185 53 187 51 2 -2 -21 -24 -51 -48 -158 -128 -205 -163 -266 -200 -38 -23
-68 -45 -68 -50 0 -5 -9 -11 -19 -15 -10 -3 -48 -24 -83 -47 -34 -23 -82 -49
-106 -58 -76 -29 -185 -103 -252 -172 -36 -36 -97 -92 -136 -125 -234 -190
-274 -231 -274 -278 0 -42 35 -31 164 54 67 43 155 95 196 116 41 21 116 62
165 93 139 85 891 460 902 449 2 -2 -30 -30 -71 -63 -40 -32 -114 -95 -163
-139 -49 -44 -142 -124 -206 -178 -149 -125 -183 -183 -136 -233 12 -12 18
-28 14 -34 -4 -6 -73 -64 -154 -128 -143 -113 -376 -318 -436 -382 -16 -18
-73 -67 -126 -110 -52 -43 -186 -172 -298 -286 -173 -179 -200 -210 -186 -220
19 -14 132 -16 140 -3 3 4 16 3 30 -3 74 -34 275 76 623 344 238 182 138 74
-162 -176 -39 -32 -127 -113 -195 -180 -68 -66 -152 -148 -185 -181 -64 -62
-209 -270 -203 -289 2 -6 27 -12 56 -13 l52 -2 92 86 c51 46 115 103 142 126
42 35 37 27 -35 -53 -82 -91 -140 -167 -140 -184 0 -4 12 1 28 11 15 10 39 25
53 32 14 7 60 41 101 76 41 34 91 68 111 74 39 13 107 61 179 128 46 42 89 56
104 32 3 -6 -8 -30 -25 -52 -73 -97 -113 -160 -127 -199 -24 -69 -3 -69 78 3
40 35 82 71 93 79 19 15 19 15 2 -13 -10 -16 -17 -33 -14 -40 4 -12 246 210
329 302 52 58 54 54 6 -13 -39 -54 -36 -81 3 -33 36 44 48 43 24 -2 -8 -17
-11 -31 -5 -31 12 0 216 187 235 217 8 12 49 45 90 73 42 28 111 79 153 114
42 34 98 76 123 94 26 17 70 51 99 76 37 32 76 53 129 71 90 30 165 90 296
235 131 146 228 230 446 388 162 117 230 179 273 251 48 79 127 151 164 151
32 0 60 22 222 170 58 53 116 104 130 113 14 9 70 30 125 47 195 59 368 134
475 206 41 28 63 30 85 8 12 -13 22 -14 38 -7 25 11 47 7 47 -10 0 -6 -12 -28
-27 -49 -20 -29 -23 -42 -15 -50 9 -9 20 -4 47 22 19 18 36 32 39 29 2 -2 15
-26 29 -54 41 -81 114 -135 181 -135 28 0 106 28 106 39 1 3 16 24 36 46 l35
40 -21 -54 c-12 -30 -17 -57 -13 -62 10 -9 109 56 182 118 138 119 195 156
266 174 28 6 88 31 136 55 83 43 119 53 119 35 0 -5 -10 -16 -22 -24 -13 -9
-18 -16 -11 -16 6 -1 15 4 18 9 3 6 24 10 45 10 31 0 38 3 34 15 -6 14 4 19
23 13 4 -2 6 -13 5 -25 -2 -14 10 -35 32 -58 20 -20 36 -43 36 -50 0 -8 11
-34 24 -59 l24 -46 -36 -30 -37 -30 33 16 c50 24 81 5 47 -30 -19 -19 -19 -27
-1 -20 18 7 33 -1 86 -49 40 -37 41 -39 24 -58 -22 -24 -10 -38 14 -16 23 21
32 21 32 3 0 -9 7 -12 18 -9 23 6 75 -35 68 -53 -3 -9 2 -14 14 -14 24 0 70
-21 70 -32 0 -4 6 -8 14 -8 7 0 34 -17 59 -37 l46 -38 -54 -33 c-51 -31 -69
-52 -44 -52 5 0 39 10 74 22 57 20 66 21 91 8 15 -8 104 -89 197 -180 166
-161 261 -273 302 -355 11 -22 33 -46 50 -55 17 -8 32 -19 34 -23 2 -5 25 -35
52 -68 45 -54 53 -59 89 -59 29 0 48 -8 72 -29 18 -15 56 -40 83 -54 85 -43
138 -111 191 -244 63 -157 63 -315 -1 -477 -9 -21 -13 -41 -10 -44 7 -7 71 15
102 34 12 8 41 53 64 100 68 140 80 115 95 -200 5 -95 2 -120 -17 -180 -20
-64 -29 -79 -100 -148 -74 -73 -77 -78 -52 -78 34 0 116 37 179 81 34 23 53
46 69 84 23 51 65 251 65 308 0 15 7 51 17 79 14 43 14 54 2 72 -8 13 -15 61
-17 129 -4 92 -1 117 19 177 12 39 31 78 42 88 18 16 20 16 38 -7 10 -13 19
-30 19 -38 0 -8 11 -28 25 -45 21 -24 25 -40 25 -89 0 -70 -8 -89 -63 -146
-53 -56 -33 -56 73 -3 62 31 81 46 86 66 10 39 -3 239 -16 264 -10 18 -9 25 3
37 12 13 17 10 41 -17 22 -27 26 -41 26 -96 0 -36 5 -85 11 -110 10 -37 14
-42 26 -32 20 16 53 83 53 108 0 11 5 20 11 20 13 0 6 -120 -12 -198 -6 -27
-6 -57 1 -85 5 -23 10 -72 10 -109 0 -58 -5 -78 -36 -140 -30 -59 -53 -87
-122 -148 -95 -83 -92 -98 11 -62 100 35 186 112 236 210 26 52 63 186 62 226
-1 15 4 35 10 42 7 8 9 28 5 49 -4 22 0 66 10 111 9 41 14 84 11 96 -3 12 -1
30 4 40 11 20 -14 68 -84 164 -16 22 -48 68 -70 103 -33 50 -57 73 -108 105
-73 45 -159 117 -159 134 0 6 -14 22 -32 37 -29 25 -36 26 -93 20 -145 -15
-243 -14 -277 5 -18 9 -48 21 -65 24 -18 4 -39 16 -45 25 -7 10 -35 32 -62 49
-40 26 -525 508 -534 531 -4 10 179 149 258 196 117 70 207 133 322 228 121
99 278 207 368 252 30 15 92 51 137 81 82 55 105 65 84 40 -16 -19 -2 -26 50
-25 53 2 83 16 174 84 64 47 197 182 258 260 28 37 139 149 192 194 24 20 41
28 43 21 2 -6 13 2 23 20 21 34 51 50 57 32 10 -32 23 -9 68 118 4 13 6 13 15
0 8 -13 12 -11 29 10 l20 25 0 -33 c0 -20 4 -31 10 -27 6 3 10 15 10 26 0 10
5 19 10 19 6 0 10 12 10 26 0 14 4 23 10 19 6 -3 10 4 10 17 0 25 20 64 20 40
0 -7 4 -11 9 -8 4 3 6 17 3 31 -6 33 16 33 24 0 8 -34 24 -32 24 3 0 16 8 36
18 45 16 15 17 24 8 75 -5 33 -6 67 -2 78 6 16 9 15 26 -11 11 -17 24 -30 30
-30 5 0 23 -16 40 -35 l31 -35 -6 55 c-3 30 -7 91 -10 135 -4 86 1 98 80 208
30 41 51 77 143 242 52 93 92 201 92 247 0 29 14 47 119 148 157 152 242 279
313 470 11 30 31 73 44 95 24 42 68 203 79 290 8 62 35 155 45 155 15 0 16
105 3 197 -7 51 -12 96 -11 100 1 5 -4 28 -11 53 -7 24 -14 58 -16 76 -1 17
-8 41 -15 54 -11 20 -10 22 4 17 14 -6 13 -1 -3 32 -11 21 -32 52 -46 69 -20
24 -64 147 -65 184 0 4 12 19 26 33 17 17 24 33 21 46 -4 15 1 23 19 30 19 7
24 14 19 29 -4 12 -2 20 5 20 6 0 8 10 4 25 -4 18 -2 25 9 25 11 0 14 11 12
42 -2 37 -1 40 11 23 8 -10 14 -22 14 -27 0 -4 5 -8 10 -8 7 0 7 6 1 19 -14
26 -3 33 29 16 15 -8 30 -11 34 -8 3 4 13 -2 21 -13 20 -26 18 -14 -5 41 -22
52 -24 65 -11 65 5 0 11 -10 13 -22 2 -12 9 -23 16 -26 9 -3 11 3 6 23 -13 53
6 56 401 75 110 5 270 19 355 30 85 11 156 20 158 20 1 0 2 4 2 10 0 5 -35 28
-77 50 -43 23 -101 56 -129 74 -37 23 -87 40 -175 61 -118 27 -122 29 -84 36
134 26 437 -26 522 -88 39 -28 53 -29 53 -3 0 67 -122 217 -240 295 -208 137
-384 189 -740 215 -85 7 -171 16 -190 20 -67 17 -135 43 -155 61 -11 9 -69 54
-130 99 -114 86 -312 190 -395 209 -162 37 -332 47 -440 26z m1200 -1229 c0
-5 -7 -1 -15 10 -8 10 -14 24 -14 29 0 6 6 1 14 -9 8 -11 15 -24 15 -30z
m-970 -2949 c0 -5 -4 -5 -10 -2 -5 3 -10 14 -10 23 0 15 2 15 10 2 5 -8 10
-19 10 -23z m-26 -62 c3 -8 1 -15 -4 -15 -6 0 -10 7 -10 15 0 8 2 15 4 15 2 0
6 -7 10 -15z m-6538 -4 c-6 -9 -46 -22 -46 -15 0 3 10 9 23 14 29 11 29 11 23
1z m-2233 -1548 c-13 -2 -35 -2 -50 0 -16 2 -5 4 22 4 28 0 40 -2 28 -4z
m6307 -133 c0 -5 -7 -10 -15 -10 -8 0 -15 5 -15 10 0 6 7 10 15 10 8 0 15 -4
15 -10z"/>
</g>
</svg>
